<svg width="874" height="874" viewBox="0 0 874 874" fill="none" xmlns="http://www.w3.org/2000/svg">
<path d="M0 127.705C0 57.7279 56.7279 1 126.705 1H746.295C816.272 1 873 57.7279 873 127.705V747.295C873 817.272 816.272 874 746.295 874H126.705C56.7279 874 0 817.272 0 747.295V127.705Z" fill="url(#paint0_linear_403_164)"/>
<path fill-rule="evenodd" clip-rule="evenodd" d="M746.587 104.584H126.413C113.805 104.584 103.584 114.805 103.584 127.413V747.587C103.584 760.195 113.805 770.416 126.413 770.416H746.587C759.195 770.416 769.416 760.195 769.416 747.587V127.413C769.416 114.805 759.195 104.584 746.587 104.584ZM126.413 64C91.3908 64 63 92.3908 63 127.413V747.587C63 782.609 91.3908 811 126.413 811H746.587C781.609 811 810 782.609 810 747.587V127.413C810 92.3908 781.609 64 746.587 64H126.413Z" fill="black"/>
<path d="M638.595 614.373H236.694V258.733H638.595V614.373ZM276.112 574.946H598.911V298.16H276.112V574.946Z" fill="black"/>
<path d="M500.72 465.824L474.803 495.528L605.631 609.729L631.549 580.025L500.72 465.824Z" fill="black"/>
<path d="M269.135 263.648L243.218 293.352L375.251 408.605L401.168 378.901L269.135 263.648Z" fill="black"/>
<path d="M605.658 263.605L473.607 378.857L499.525 408.565L631.575 293.313L605.658 263.605Z" fill="black"/>
<path d="M374.197 465.772L243.351 579.974L269.268 609.682L400.114 495.48L374.197 465.772Z" fill="black"/>
<path d="M437.511 558.696L316.328 437.485L437.511 316.275L558.693 437.485L437.511 558.696ZM372.258 437.752L437.511 502.753L502.763 437.485L437.511 372.485L372.258 437.752Z" fill="black"/>
<path d="M344.56 417.772H256.402V457.199H344.56V417.772Z" fill="black"/>
<path d="M613.559 417.772H525.402V457.199H613.559V417.772Z" fill="black"/>
<path d="M457.22 278.447H417.803V348.775H457.22V278.447Z" fill="black"/>
<path d="M457.22 525.663H417.803V595.991H457.22V525.663Z" fill="black"/>
<defs>
<linearGradient id="paint0_linear_403_164" x1="64.8515" y1="874" x2="823.114" y2="0.999997" gradientUnits="userSpaceOnUse">
<stop stop-color="#B6D0F7"/>
<stop offset="0.14" stop-color="#EEF4E1"/>
<stop offset="0.28" stop-color="#FAFCFE"/>
<stop offset="0.42" stop-color="#E2C1F9"/>
<stop offset="0.57" stop-color="#BFD1F9"/>
<stop offset="0.71" stop-color="#FAFCFE"/>
<stop offset="0.85" stop-color="#BAE4E2"/>
<stop offset="1" stop-color="#8C6BE3"/>
</linearGradient>
</defs>
</svg>
